<svg width="53" height="53" viewBox="0 0 53 53" fill="none" xmlns="http://www.w3.org/2000/svg">
<path d="M0 10C0 4.47716 4.47715 0 10 0H42.9996C48.5225 0 52.9996 4.47715 52.9996 10V17.6669H0V10Z" fill="white" fill-opacity="0.4"/>
<rect y="17.668" width="52.9996" height="17.6669" fill="white" fill-opacity="0.6"/>
<path d="M0 35.334H52.9996V43.0009C52.9996 48.5237 48.5225 53.0009 42.9996 53.0009H10C4.47715 53.0009 0 48.5237 0 43.0009V35.334Z" fill="white" fill-opacity="0.9"/>
<path d="M9.35387 3.8457H14.0882C17.4476 3.8457 19.3617 5.85352 19.3617 9.37695C19.3617 13.0801 17.4789 15.127 14.0882 15.127H9.35387V3.8457ZM12.2211 6.15039V12.8223H13.5726C15.432 12.8223 16.4398 11.666 16.4398 9.43164C16.4398 7.33008 15.3773 6.15039 13.5726 6.15039H12.2211Z" fill="#211843"/>
<path d="M30.4691 29.7383V32.043H22.7425V20.7695H30.4691V23.0742H25.6097V25.3242H30.18V27.4336H25.6097V29.7383H30.4691Z" fill="#211742"/>
<path d="M40.3265 48.957H37.4672V39.9883H34.2172V37.6836H43.5843V39.9883H40.3265V48.957Z" fill="#211843"/>
</svg>
