<svg width="24" height="24" viewBox="0 0 24 24" fill="none" xmlns="http://www.w3.org/2000/svg">
  <circle cx="12" cy="12" r="11" fill="#FFFFFF" fill-opacity="0.12" stroke="#FFFFFF" stroke-opacity="0.32"/>
  <path d="M12 6.5C9.98 6.5 8.34 8.13 8.34 10.16V12.44C8.34 13.01 8.16 13.56 7.82 14.01L7.17 14.86C6.76 15.4 7.14 16.18 7.82 16.18H16.17C16.86 16.18 17.24 15.4 16.82 14.86L16.17 14.01C15.84 13.56 15.66 13.01 15.66 12.44V10.16C15.66 8.13 14.02 6.5 12 6.5Z" fill="#FFFFFF"/>
  <path d="M10.14 17.32C10.43 18.03 11.15 18.53 12 18.53C12.85 18.53 13.57 18.03 13.86 17.32H10.14Z" fill="#FFFFFF"/>
</svg>
